<svg xmlns="http://www.w3.org/2000/svg" xmlns:xlink="http://www.w3.org/1999/xlink" version="1.1" x="0px" y="0px" viewBox="0 0 450 562.5" style="enable-background:new 0 0 450 450;" xml:space="preserve"><g><g><path d="M399.35,441.63c-2.76,0-5-2.24-5-5s2.24-5,5-5c2.12,0,3.83-0.78,5.22-2.37c1.39-1.6,1.93-3.39,1.65-5.5l-10.91-80.45    c-0.37-2.74,1.55-5.25,4.28-5.63c2.74-0.36,5.26,1.55,5.63,4.28l10.91,80.45c0.68,4.99-0.72,9.63-4.03,13.42    C408.8,439.63,404.39,441.63,399.35,441.63z M295.39,441.63c-5.03,0-9.44-2-12.75-5.79s-4.7-8.43-4.03-13.42l10.91-80.45    c0.37-2.74,2.89-4.64,5.63-4.28c2.74,0.37,4.65,2.89,4.28,5.63l-10.91,80.45c-0.29,2.1,0.25,3.9,1.65,5.5    c1.39,1.6,3.1,2.37,5.22,2.37c2.76,0,5,2.24,5,5S298.15,441.63,295.39,441.63z"/></g><g><path d="M409.84,418.19H284.91c-2.76,0-5-2.24-5-5s2.24-5,5-5h124.93c2.76,0,5,2.24,5,5S412.6,418.19,409.84,418.19z"/></g><g><path d="M347.37,371.09c-42.13,0-76.4-34.27-76.4-76.4c0-2.76,2.24-5,5-5s5,2.24,5,5c0,36.61,29.79,66.4,66.4,66.4    s66.4-29.79,66.4-66.4c0-2.76,2.24-5,5-5s5,2.24,5,5C423.77,336.81,389.5,371.09,347.37,371.09z"/></g><g><path d="M423.99,299.69H270.75c-8.75,0-15.87-7.12-15.87-15.87s7.12-15.87,15.87-15.87H424c8.75,0,15.87,7.12,15.87,15.87    S432.75,299.69,423.99,299.69z M270.75,277.94c-3.24,0-5.87,2.63-5.87,5.87s2.63,5.87,5.87,5.87H424c3.24,0,5.87-2.63,5.87-5.87    s-2.63-5.87-5.87-5.87H270.75z"/></g><g><path d="M397.66,277.95c-0.63,0-1.26-0.12-1.88-0.37c-2.56-1.04-3.79-3.96-2.75-6.51c4.65-11.44,7.1-24.5,7.1-37.76    c0-41.67-23.67-75.57-52.76-75.57s-52.76,33.9-52.76,75.57c0,13.26,2.46,26.32,7.1,37.76c1.04,2.56-0.19,5.47-2.75,6.51    s-5.47-0.19-6.51-2.75c-5.13-12.62-7.83-26.98-7.83-41.52c0-47.18,28.15-85.57,62.76-85.57s62.76,38.38,62.76,85.57    c0,14.54-2.71,28.9-7.84,41.52C401.51,276.77,399.64,277.95,397.66,277.95z"/></g><g><path d="M423.99,277.94c-2.76,0-5-2.24-5-5V160.87c0-13.01-10.58-23.59-23.59-23.59h-96.06c-13.01,0-23.59,10.58-23.59,23.59    v112.08c0,2.76-2.24,5-5,5s-5-2.24-5-5V160.87c0-18.52,15.07-33.59,33.59-33.59h96.06c18.52,0,33.59,15.07,33.59,33.59v112.08    C428.99,275.71,426.76,277.94,423.99,277.94z"/></g><g><path d="M376.57,394.64h-58.4c-2.76,0-5-2.24-5-5s2.24-5,5-5h58.4c2.76,0,5,2.24,5,5S379.33,394.64,376.57,394.64z"/></g><g><path d="M365.7,335.39h-36.66c-2.76,0-5-2.24-5-5s2.24-5,5-5h36.66c2.76,0,5,2.24,5,5S368.46,335.39,365.7,335.39z"/></g><g><path d="M440.3,441.63H254.44c-2.76,0-5-2.24-5-5s2.24-5,5-5H440.3c2.76,0,5,2.24,5,5S443.06,441.63,440.3,441.63z"/></g><g><path d="M148.89,441.63H85.73c-2.76,0-5-2.24-5-5V319.57c0-2.76,2.24-5,5-5s5,2.24,5,5v112.07h53.16V319.1c0-2.76,2.24-5,5-5    s5,2.24,5,5v117.53C153.89,439.4,151.65,441.63,148.89,441.63z"/></g><g><path d="M116.09,329.5c-16.76,0-33.24-4.2-48.99-12.49c-3.56-1.88-6.18-5.02-7.37-8.87c-1.19-3.84-0.82-7.92,1.06-11.48    c1.34-2.55,3.37-4.65,5.87-6.07c2.4-1.36,5.45-0.53,6.82,1.88c1.37,2.4,0.53,5.45-1.87,6.82c-0.83,0.47-1.51,1.18-1.97,2.04    c-0.63,1.2-0.76,2.57-0.36,3.86c0.4,1.29,1.28,2.35,2.48,2.98c14.7,7.73,30.04,11.54,45.61,11.33    c14.63-0.21,29.86-3.98,45.28-11.23c1.23-0.58,2.16-1.59,2.62-2.85c0.46-1.27,0.4-2.64-0.17-3.86c-0.45-0.96-1.17-1.73-2.08-2.25    c-2.4-1.36-3.25-4.41-1.89-6.81s4.41-3.25,6.81-1.89c2.73,1.54,4.88,3.87,6.21,6.72c1.7,3.64,1.88,7.73,0.51,11.51    c-1.37,3.78-4.13,6.8-7.77,8.5c-16.71,7.85-33.33,11.95-49.39,12.17C117.04,329.5,116.56,329.5,116.09,329.5z"/></g><g><path d="M117.31,309.37c-61.81,0-112.09-41.87-112.09-93.33c0-2.76,2.24-5,5-5h214.19c2.76,0,5,2.24,5,5    C229.41,267.5,179.12,309.37,117.31,309.37z M15.4,221.04c3.18,43.63,47.68,78.33,101.91,78.33s98.73-34.7,101.91-78.33H15.4z"/></g><g><path d="M133.79,221.04c-2.76,0-5-2.24-5-5v-64.76c0-7.38-2.89-14.33-8.14-19.58s-12.21-8.14-19.58-8.14s-14.33,2.89-19.58,8.14    c-4.16,4.16-6.83,9.38-7.77,15.04h6.59c0.86-3.92,2.83-7.54,5.75-10.46c4.03-4.03,9.36-6.24,15-6.24c5.65,0,10.98,2.22,15,6.24    c4.03,4.03,6.24,9.35,6.24,15v64.76c0,2.76-2.24,5-5,5s-5-2.24-5-5v-64.76c0-2.98-1.18-5.8-3.31-7.93    c-2.14-2.14-4.96-3.31-7.93-3.31s-5.8,1.18-7.93,3.31c-2.14,2.14-3.31,4.95-3.31,7.93c0,0.25-0.01,0.49-0.02,0.73    c-0.15,2.65-2.34,4.73-4.99,4.73H68.36c-2.66,0-4.85-2.08-4.99-4.73c-0.01-0.24-0.02-0.49-0.02-0.73    c0-10.05,3.93-19.51,11.07-26.65s16.61-11.07,26.65-11.07c10.05,0,19.51,3.93,26.65,11.07c7.14,7.14,11.07,16.6,11.07,26.65v64.76    C138.79,218.8,136.55,221.04,133.79,221.04z"/></g><g><path d="M67.2,221.04c-2.76,0-5-2.24-5-5v-25.17c0-2.76,2.24-5,5-5s5,2.24,5,5v25.17C72.2,218.8,69.96,221.04,67.2,221.04z"/></g><g><path d="M79.78,195.87H54.61c-2.76,0-5-2.24-5-5s2.24-5,5-5h25.17c2.76,0,5,2.24,5,5S82.55,195.87,79.78,195.87z"/></g><g><path d="M167.43,221.04c-2.76,0-5-2.24-5-5v-25.17c0-2.76,2.24-5,5-5s5,2.24,5,5v25.17C172.43,218.8,170.19,221.04,167.43,221.04z    "/></g><g><path d="M180.01,195.87h-25.17c-2.76,0-5-2.24-5-5s2.24-5,5-5h25.17c2.76,0,5,2.24,5,5S182.77,195.87,180.01,195.87z"/></g><g><path d="M289.08,112.31H146.83c-2.76,0-5-2.24-5-5V14.84c0-2.76,2.24-5,5-5h142.25c2.76,0,5,2.24,5,5v92.46    C294.08,110.07,291.84,112.31,289.08,112.31z M151.83,102.31h132.25V19.84H151.83V102.31z"/></g><g><path d="M201.79,81.53c-0.85,0-1.71-0.22-2.5-0.67c-2.39-1.38-3.21-4.44-1.83-6.83l17.85-30.91c1.38-2.39,4.44-3.21,6.83-1.83    c2.39,1.38,3.21,4.44,1.83,6.83l-17.85,30.91C205.19,80.63,203.51,81.53,201.79,81.53z"/></g><g><path d="M228.5,81.53c-0.85,0-1.71-0.22-2.5-0.67c-2.39-1.38-3.21-4.44-1.83-6.83l5.61-9.72c1.38-2.39,4.44-3.21,6.83-1.83    c2.39,1.38,3.21,4.44,1.83,6.83l-5.61,9.72C231.91,80.63,230.23,81.53,228.5,81.53z"/></g></g><text x="0" y="465" fill="#000000" font-size="5px" font-weight="bold" font-family="'Helvetica Neue', Helvetica, Arial-Unicode, Arial, Sans-serif"></text><text x="0" y="470" fill="#000000" font-size="5px" font-weight="bold" font-family="'Helvetica Neue', Helvetica, Arial-Unicode, Arial, Sans-serif"></text></svg>