<svg xmlns="http://www.w3.org/2000/svg" version="1.1" viewBox="-5.0 -10.0 110.0 135.0">
 <path d="m88.793 29.102c-1.418-2.1992-4.3633-2.8359-6.5664-1.418l-2.1367 1.3789c-9.7969-10.906-26.293-13.512-39.09-5.5703-0.5-0.39063-1.0742-0.67969-1.7148-0.82031-1.1133-0.24219-2.25-0.035156-3.1992 0.57812-0.95313 0.61328-1.6094 1.5625-1.8477 2.6758-0.24219 1.1133-0.035156 2.25 0.57812 3.1992l18.156 28.156c-0.73438 0.20703-1.4062 0.55078-1.9688 1.0156-1.3164-1.7109-3.4727-2.5352-5.7656-2.1211-2 0.35938-3.5664 1.6016-4.25 3.2266-1.082-0.68359-2.3047-0.94531-3.5391-0.74219-1.3867 0.23047-2.6758 1.0391-3.5625 2.1797-1.5977-1.3789-3.8398-1.7734-5.7734-0.92188-1.6289 0.71875-2.5938 2.1562-2.6953 3.8867-1.2617-0.14844-2.6172 0.36328-3.6914 1.457-0.94531 0.96094-1.4141 2.125-1.3164 3.1211-0.86719 0.41016-1.5156 1.0742-1.8008 1.9102-0.23438 0.67969-0.21875 1.4219 0.023437 2.1484l-3.9062-0.011718c-1.1367-0.003907-2.1992 0.4375-3.0078 1.2383s-1.2539 1.8672-1.2578 3c-0.007813 2.3438 1.8945 4.2578 4.2383 4.2656l54.562 0.17969h0.015625c1.0742 0 2.1016-0.40625 2.8945-1.1445 0.011719-0.007812 0.015625-0.023438 0.023437-0.03125 0.11328-0.058594 0.22656-0.11328 0.33594-0.18359 0.95312-0.61328 1.6094-1.5625 1.8477-2.6758 0.13672-0.64062 0.11328-1.2852-0.039062-1.9023 6.6602-4.4609 11.258-11.203 12.953-19.059 1.4062-6.5117 0.6875-13.148-2.0039-19.109l2.0938-1.3516c2.1992-1.418 2.8359-4.3633 1.418-6.5664zm-68.695 41.711c0.19141-0.5625 0.70703-0.98047 1.4531-1.1797 0.035157-0.007812 0.0625-0.03125 0.09375-0.046874 0.023438-0.007813 0.046875-0.003907 0.070313-0.015626 0.023437-0.011718 0.035156-0.03125 0.054687-0.042968 0.046875-0.03125 0.085938-0.0625 0.125-0.10156 0.035157-0.035156 0.070313-0.070312 0.097657-0.10938 0.027343-0.042968 0.050781-0.085937 0.070312-0.13281s0.039062-0.089844 0.046875-0.14062c0.011719-0.046875 0.015625-0.097657 0.015625-0.14844 0-0.054687 0-0.10547-0.011719-0.16016-0.003906-0.023437 0-0.046875-0.003906-0.070313-0.007813-0.03125-0.027344-0.050781-0.039063-0.078124-0.011718-0.027344-0.011718-0.054688-0.023437-0.082032-0.25391-0.48828 0.089844-1.4023 0.80078-2.125 0.73828-0.75391 1.9258-1.3594 3.0352-0.80078 0.011719 0.007813 0.023438 0.003906 0.039063 0.011719 0.058594 0.027344 0.12109 0.039062 0.18359 0.050781 0.035156 0.007813 0.070312 0.019531 0.10547 0.019531 0.007812 0 0.015624 0.003906 0.027343 0.003906 0.042969 0 0.082031-0.003906 0.125-0.011718 0.023438-0.003906 0.039063-0.015625 0.058594-0.023438 0.054687-0.011718 0.10156-0.03125 0.15234-0.054687 0.046875-0.023438 0.089843-0.042969 0.12891-0.070313s0.074219-0.0625 0.10547-0.10156c0.039062-0.039063 0.070312-0.078125 0.097656-0.12891 0.011719-0.019532 0.027344-0.03125 0.039062-0.050782 0.011719-0.027344 0.011719-0.054687 0.023438-0.082031 0.019531-0.050781 0.035156-0.10156 0.042969-0.15234 0.007812-0.054687 0.007812-0.10547 0.007812-0.16016 0-0.027344 0.007813-0.054687 0.003907-0.085937-0.35156-2.2031 1.0898-3.0938 1.7266-3.3711 1.3047-0.57812 3.3164-0.44141 4.6406 1.2188 0 0.003906 0.003906 0.003906 0.007813 0.003906 0.03125 0.039062 0.078124 0.066406 0.11719 0.10156 0.042969 0.035157 0.078125 0.074219 0.125 0.097657 0.003906 0 0.003906 0.003906 0.007813 0.003906 0.015624 0.007813 0.03125 0.003906 0.046874 0.011719 0.089844 0.039062 0.17969 0.0625 0.27734 0.066406 0.011719 0 0.023438 0.007812 0.039063 0.007812 0.070312 0 0.14453-0.011718 0.21094-0.027343 0.003906 0 0.007813-0.003907 0.007813-0.003907 0.085937-0.023437 0.16406-0.070312 0.23828-0.12109 0.011719-0.007813 0.023438-0.007813 0.03125-0.015625 0.011719-0.007813 0.015625-0.019532 0.023438-0.027344 0.0625-0.054688 0.11328-0.11719 0.16016-0.1875 0.007812-0.011719 0.015625-0.019531 0.023437-0.03125 0-0.003906 0.003907-0.003906 0.007813-0.007812 0.60156-1.1719 1.75-2.0273 2.9922-2.2344 1.1367-0.1875 2.2344 0.19141 3.1719 1.0938 0.023438 0.023438 0.054688 0.03125 0.078125 0.050782 0.042969 0.03125 0.085938 0.0625 0.13672 0.085937 0.050781 0.023438 0.10156 0.039063 0.15234 0.050781 0.03125 0.007813 0.058594 0.027344 0.089844 0.03125 0.03125 0.003907 0.0625 0.003907 0.09375 0.003907h0.007812c0.03125 0 0.058594-0.011719 0.085938-0.015625 0.070312-0.007813 0.14062-0.015625 0.20312-0.042969 0.027344-0.011719 0.050782-0.035156 0.078126-0.046875 0.058593-0.035156 0.11719-0.066406 0.16797-0.11719 0.007813-0.007812 0.015625-0.007812 0.023438-0.015624 0.019531-0.023438 0.027344-0.050782 0.046875-0.074219 0.039062-0.046875 0.074219-0.097657 0.097656-0.15234 0.019531-0.042969 0.03125-0.085937 0.039063-0.12891 0.007812-0.035157 0.027343-0.0625 0.03125-0.10156 0.22266-1.8906 1.9219-2.8555 3.3086-3.1055 1.5625-0.28125 3.6094 0.14453 4.6562 2.1836 0.003907 0.003907 0.007813 0.007813 0.007813 0.011719 0.023437 0.046875 0.0625 0.082031 0.097656 0.12109 0.035156 0.039062 0.0625 0.085937 0.10547 0.12109 0.003906 0.003906 0.003906 0.007812 0.007812 0.011718 0.074219 0.058594 0.15234 0.097656 0.23828 0.125 0.011719 0.003906 0.023438 0.003906 0.03125 0.003906 0.070313 0.019532 0.14063 0.035157 0.21094 0.035157 0.007812 0 0.015625-0.003907 0.027344-0.007813 0.082031-0.003906 0.16406-0.027344 0.24219-0.054687 0.027344-0.011719 0.054688-0.011719 0.082031-0.023438 0.003907 0 0.007813 0 0.011719-0.003906 0.10156-0.054687 0.1875-0.125 0.25391-0.21094 0.003906-0.003907 0.007812-0.003907 0.011718-0.007813 0.54688-0.71094 1.4102-1.168 2.3945-1.3242l8.9492 13.879-42.469-0.14062c-0.33984-0.57031-0.44922-1.1445-0.27734-1.6406zm-8.0625 5.8672c0.003906-0.71094 0.28125-1.3789 0.78906-1.8828 0.50781-0.50391 1.1797-0.78125 1.8867-0.77734l48.949 0.16406c0.070313 0.16797 0.1875 0.32031 0.36328 0.41016 0.039062 0.019531 0.082031 0.015625 0.12109 0.027344l2.5 3.875c0.26562 0.41016 0.60156 0.75 0.97656 1.043l-52.922-0.17578c-1.4727-0.003906-2.668-1.207-2.6641-2.6797zm59.629 1.7539c-0.59766 0.38281-1.3086 0.51172-2.0117 0.36328-0.69922-0.15234-1.2969-0.5625-1.6797-1.1602l-31.832-49.363c-0.38281-0.59766-0.51172-1.3086-0.36328-2.0117 0.15234-0.69922 0.5625-1.2969 1.1602-1.6797 0.43359-0.28125 0.92969-0.42188 1.4336-0.42188 0.19141 0 0.38281 0.019532 0.57422 0.0625 0.69922 0.15234 1.2969 0.5625 1.6797 1.1602l31.832 49.363c0.79688 1.2383 0.44141 2.8945-0.79688 3.6914zm14.074-22.641c-1.5898 7.3633-5.8633 13.691-12.059 17.922l-31.613-49.023c13.445-8.168 31.094-4.1797 39.668 9.125 4.2266 6.5508 5.6445 14.355 4 21.977zm0.77734-21.453-1.9297 1.2461c-0.46094-0.89453-0.96484-1.7695-1.5195-2.625-0.60547-0.9375-1.2578-1.832-1.9453-2.6797l1.957-1.2617c1.4688-0.94531 3.4336-0.52344 4.3789 0.94531 0.94531 1.4688 0.52344 3.4336-0.94531 4.3789zm-58.109 18.996c-1.375-2.4766-0.86328-3.7422-0.36328-4.9688 0.46094-1.1289 0.93359-2.2969 0.12891-5.0078-0.125-0.41797 0.11328-0.85938 0.53125-0.98438s0.85938 0.11328 0.98438 0.53125c0.96484 3.2422 0.33203 4.8008-0.17969 6.0547-0.45312 1.1172-0.72656 1.793 0.28125 3.6055 0.21094 0.38281 0.074219 0.86328-0.30859 1.0742-0.12109 0.066406-0.25391 0.10156-0.38281 0.10156-0.27734 0-0.54688-0.14844-0.69141-0.40625zm-6.6641 4.0156c-1.375-2.4766-0.86328-3.7422-0.36328-4.9688 0.46094-1.1289 0.93359-2.2969 0.12891-5.0078-0.125-0.41797 0.11328-0.85938 0.53125-0.98438 0.41797-0.125 0.85938 0.11328 0.98438 0.53125 0.96484 3.2422 0.33203 4.8008-0.17969 6.0547-0.45312 1.1172-0.72656 1.793 0.28125 3.6055 0.21094 0.38281 0.074219 0.86328-0.30859 1.0742-0.12109 0.066406-0.25391 0.10156-0.38281 0.10156-0.27734 0-0.54688-0.14844-0.69141-0.40625zm53.297-25.352c0.28125 0.33594 0.23438 0.83594-0.10156 1.1133-0.14844 0.125-0.32812 0.18359-0.50781 0.18359-0.22656 0-0.45313-0.097656-0.60938-0.28516-0.69531-0.83594-1.4766-1.6328-2.3242-2.3633-0.33203-0.28516-0.36719-0.78516-0.078125-1.1172 0.28516-0.33203 0.78516-0.36719 1.1172-0.078125 0.91016 0.78906 1.7539 1.6445 2.5039 2.5469zm-5.9492-4.1172c-0.14453 0.25391-0.41406 0.39844-0.6875 0.39844-0.13281 0-0.26953-0.035156-0.39453-0.10547-5.5469-3.1914-12.145-3.8672-16.812-1.7227-0.39844 0.18359-0.86719 0.007813-1.0508-0.38672-0.18359-0.39844-0.007812-0.86719 0.38672-1.0508 5.1953-2.3867 12.195-1.7031 18.262 1.7891 0.37891 0.21875 0.50781 0.70312 0.29297 1.0781zm-26.172 37.98c0.25 0.24219 0.25781 0.64453 0.015625 0.89453-0.24219 0.25-0.64453 0.25781-0.89453 0.015626-0.57422-0.55469-1.2461-0.78906-1.9414-0.67578-0.75391 0.125-1.4766 0.66406-1.8438 1.375l-0.003906 0.003906c-0.039062 0.074219-0.09375 0.14453-0.16406 0.20313-0.015626 0.011718-0.03125 0.015624-0.046876 0.023437-0.023437 0.015625-0.050781 0.027344-0.074218 0.039063-0.070313 0.035156-0.14453 0.054687-0.22266 0.0625-0.015626 0-0.03125 0.015624-0.050782 0.015624-0.011718 0-0.019531-0.007812-0.03125-0.007812-0.078125-0.003906-0.14844-0.023438-0.22266-0.054688-0.011719-0.003906-0.023438-0.003906-0.039062-0.007812-0.003907 0-0.003907-0.003906-0.003907-0.003906-0.035156-0.019532-0.066406-0.050782-0.097656-0.078125-0.03125-0.027344-0.070313-0.050781-0.097656-0.082031l-0.003907-0.003907c-0.8125-1.0195-2.0469-1.1055-2.8477-0.75-0.38281 0.16797-1.2539 0.70703-1.043 2.043 0.054687 0.34375-0.17969 0.66797-0.52344 0.72266-0.035156 0.003906-0.066406 0.007813-0.10156 0.007813-0.30469 0-0.57422-0.22266-0.625-0.53516-0.23828-1.5078 0.44141-2.8125 1.7812-3.4023 1.2539-0.55078 2.6953-0.31641 3.7539 0.53906 0.58594-0.71094 1.4102-1.2109 2.2969-1.3594 1.0898-0.17969 2.1641 0.17969 3.0273 1.0117zm-8.5469-13.078c-1.375-2.4766-0.86328-3.7422-0.36328-4.9688 0.46094-1.1289 0.93359-2.2969 0.12891-5.0078-0.125-0.41797 0.11328-0.85938 0.53125-0.98438s0.85938 0.11328 0.98438 0.53125c0.96484 3.2422 0.33203 4.8008-0.17969 6.0547-0.45312 1.1172-0.72656 1.793 0.28125 3.6055 0.21094 0.38281 0.074219 0.86328-0.30859 1.0742-0.12109 0.066406-0.25391 0.10156-0.38281 0.10156-0.27734 0-0.54688-0.14844-0.69141-0.40625z"/>
<text x="0.0" y="117.5" font-size="5.0" font-weight="bold" font-family="Arbeit Regular, Helvetica, Arial-Unicode, Arial, Sans-serif" fill="#000000"></text><text x="0.0" y="122.5" font-size="5.0" font-weight="bold" font-family="Arbeit Regular, Helvetica, Arial-Unicode, Arial, Sans-serif" fill="#000000"></text></svg>