<svg xmlns="http://www.w3.org/2000/svg" data-name="Layer 1" viewBox="0 0 64 80" x="0px" y="0px"><title>smart home</title><path d="M56.25,38.13a1,1,0,0,1-.71-.29,1,1,0,0,1,0-1.42,10.3,10.3,0,0,0,0-14.55A1,1,0,0,1,57,20.45a12.32,12.32,0,0,1,0,17.39A1,1,0,0,1,56.25,38.13Z"/><path d="M53.23,35.22a1,1,0,0,1-.7-.29,1,1,0,0,1,0-1.42,6.19,6.19,0,0,0,0-8.73,1,1,0,0,1,1.41-1.41,8.18,8.18,0,0,1,0,11.56A1,1,0,0,1,53.23,35.22Z"/><path d="M50.25,32.14a1,1,0,0,1-.7-.3,1,1,0,0,1,0-1.41,1.84,1.84,0,0,0,0-2.57A1,1,0,1,1,51,26.45a3.81,3.81,0,0,1,0,5.39A1,1,0,0,1,50.25,32.14Z"/><path d="M40,57.29H9.16a5.72,5.72,0,0,1-5.72-5.71V6.71A5.72,5.72,0,0,1,9.16,1H40a5.72,5.72,0,0,1,5.72,5.71V51.58A5.72,5.72,0,0,1,40,57.29ZM9.16,3A3.72,3.72,0,0,0,5.44,6.71V51.58a3.72,3.72,0,0,0,3.72,3.71H40a3.72,3.72,0,0,0,3.72-3.71V6.71A3.72,3.72,0,0,0,40,3Z"/><path d="M31.54,22.22a4.7,4.7,0,0,1-4.69-4.69c0-2.26,3.24-6.78,3.89-7.66a1,1,0,0,1,.8-.41h0a1,1,0,0,1,.81.41c.65.88,3.89,5.4,3.89,7.66A4.71,4.71,0,0,1,31.54,22.22Zm0-10c-1.3,1.93-2.69,4.35-2.69,5.33a2.7,2.7,0,0,0,5.39,0C34.24,16.55,32.85,14.13,31.54,12.2Z"/><path d="M18.14,27.67a4.87,4.87,0,0,1-2.83-8.84V9.13a2.83,2.83,0,0,1,5.65,0v9.7a4.87,4.87,0,0,1-2.82,8.84Zm0-19.36a.83.83,0,0,0-.83.82V19.39a1,1,0,0,1-.52.88,2.88,2.88,0,1,0,2.7,0,1,1,0,0,1-.53-.88V9.13A.82.82,0,0,0,18.14,8.31Z"/><path d="M34.08,39.63H13.93a1,1,0,0,1-1-1V32.78a1,1,0,0,1,1-1H34.08a1,1,0,0,1,1,1v5.85A1,1,0,0,1,34.08,39.63Zm-19.15-2H33.08V33.78H14.93Z"/><path d="M18,51.05a4,4,0,1,1,4-4A4,4,0,0,1,18,51.05Zm0-6a2,2,0,1,0,2,2A2,2,0,0,0,18,45Z"/><path d="M31.15,51.05a4,4,0,1,1,4-4A4,4,0,0,1,31.15,51.05Zm0-6a2,2,0,1,0,2,2A2,2,0,0,0,31.15,45Z"/><path d="M12.67,11.46h-2a1,1,0,0,1,0-2h2a1,1,0,1,1,0,2Z"/><path d="M12.67,14.88h-2a1,1,0,0,1,0-2h2a1,1,0,0,1,0,2Z"/><path d="M12.67,18.3h-2a1,1,0,1,1,0-2h2a1,1,0,0,1,0,2Z"/><path d="M31.29,63a1,1,0,0,1-1-1V56.29a1,1,0,0,1,2,0V62A1,1,0,0,1,31.29,63Z"/><path d="M17.88,63a1,1,0,0,1-1-1V56.29a1,1,0,0,1,2,0V62A1,1,0,0,1,17.88,63Z"/><text x="0" y="79" fill="#000000" font-size="5px" font-weight="bold" font-family="'Helvetica Neue', Helvetica, Arial-Unicode, Arial, Sans-serif"></text><text x="0" y="84" fill="#000000" font-size="5px" font-weight="bold" font-family="'Helvetica Neue', Helvetica, Arial-Unicode, Arial, Sans-serif"></text></svg>