<svg xmlns="http://www.w3.org/2000/svg" version="1.1" viewBox="-5.0 -10.0 110.0 135.0">
 <path d="m98.891 3.332v-0.30469c0-0.10156-0.10156-0.10156-0.10156-0.20312l-0.10156-0.10156s-0.10156-0.10156-0.20312-0.10156h-0.10156c-0.10156 0-0.20312-0.10156-0.30469-0.10156l-95.855 0.003907c-0.10156 0-0.20312 0-0.30469 0.10156h-0.10156c-0.097656 0-0.097656 0.10156-0.19922 0.10156l-0.10156 0.10156c0 0.10156-0.10156 0.10156-0.10156 0.20312v0.30469 93.234c0 0.40234 0.30469 0.80859 0.80859 0.80859h95.859c0.40234 0 0.80859-0.30469 0.80859-0.80859zm-77.273 66.465-18.688 17.68v-82.426l18.688 17.574zm1.0078 1.0117h3.2305l-15.855 17.574h-5.9609zm0.50781-1.5156v-46.262h54.039v46.262zm3.4336 1.5156h4.0391l-12.121 17.574h-7.7773zm4.6445 0h4.1445l-7.8789 17.574h-8.2852zm4.6484 0h4.1406l-4.6445 17.574h-7.375zm4.7461 0h4.1406l-1.4141 17.574h-7.4766zm4.6484 0h4.6445v17.574h-5.9609zm5.1484 0h4.6445l1.4141 17.574h-5.957zm6.4648 17.574-1.4141-17.574h4.1445l4.6445 17.574zm7.9805 0-4.6445-17.574h4.1406l7.8789 17.574zm7.8789 0-7.8789-17.574h4.1406l12.121 17.574zm8.9922 0-12.121-17.574h4.0391l15.859 17.574zm8.4844 0-15.859-17.574h3.2305l18.586 17.574zm-11.617-18.586v-47.172l18.688-17.574v82.324zm17.574-65.758-18.586 17.477h-54.949l-18.586-17.477zm-93.23 91.719v-5.8594h94.445v5.8594z"/>
<text x="0.0" y="117.5" font-size="5.0" font-weight="bold" font-family="Arbeit Regular, Helvetica, Arial-Unicode, Arial, Sans-serif" fill="#000000"></text><text x="0.0" y="122.5" font-size="5.0" font-weight="bold" font-family="Arbeit Regular, Helvetica, Arial-Unicode, Arial, Sans-serif" fill="#000000"></text></svg>