<svg xmlns="http://www.w3.org/2000/svg" data-name="Layer 2" viewBox="0 0 100 125" x="0px" y="0px"><path d="M15.0645161,36.5137927v26.9726499c0,11.8269601,9.6220812,21.4490413,21.4492765,21.4490413h26.9726499c11.8269601,0,21.4490413-9.6220812,21.4490413-21.4490413v-26.9726499c0-11.8271954-9.6220812-21.4492765-21.4490413-21.4492765h-26.9726499c-11.8271954,0-21.4492765,9.6220812-21.4492765,21.4492765Zm6.9529169,.9557013c0-8.5202544,6.9318065-15.4520609,15.4520609-15.4520609h25.0612307c8.5202544,0,15.4518423,6.9318065,15.4518423,15.4520609v25.0612307c0,8.5202544-6.9315879,15.4518423-15.4518423,15.4518423h-25.0612307c-8.5202544,0-15.4520609-6.9315879-15.4520609-15.4518423v-25.0612307Zm18.4013533,12.5305061c0,5.2830696,4.2981441,9.5812137,9.5812137,9.5812137s9.5812137-4.2981441,9.5812137-9.5812137c0-5.2830696-4.2981441-9.5812137-9.5812137-9.5812137s-9.5812137,4.2981441-9.5812137,9.5812137Zm-6.3334864,0c0-8.7755557,7.1391443-15.9147001,15.9147001-15.9147001s15.9147001,7.1391443,15.9147001,15.9147001c0,8.7755557-7.1391443,15.9147001-15.9147001,15.9147001-8.7755557,0-15.9147001-7.1391443-15.9147001-15.9147001Zm33.8369903-22.262446c2.2515437,0,4.0764909,1.8251338,4.0764909,4.0765531,0,2.2514815-1.8249472,4.0766153-4.0764909,4.0766153-2.2514193,0-4.0766153-1.8251338-4.0766153-4.0766153,0-2.2514193,1.825196-4.0765531,4.0766153-4.0765531Z" fill-rule="evenodd"/><text x="0" y="115" fill="#000000" font-size="5px" font-weight="bold" font-family="'Helvetica Neue', Helvetica, Arial-Unicode, Arial, Sans-serif"></text><text x="0" y="120" fill="#000000" font-size="5px" font-weight="bold" font-family="'Helvetica Neue', Helvetica, Arial-Unicode, Arial, Sans-serif"></text></svg>