<svg xmlns="http://www.w3.org/2000/svg" version="1.1" viewBox="-5.0 -10.0 110.0 135.0">
 <path d="m97.762 49.887-16.137-16.672v-19.594h2.3672c0.82812 0 1.5-0.67188 1.5-1.5v-5.7461c0-0.82812-0.67188-1.5-1.5-1.5h-19.273c-0.82812 0-1.5 0.67188-1.5 1.5v5.7461c0 0.82812 0.67188 1.5 1.5 1.5h1.6953v3.875l-11.355-11.73c-1.3164-1.3633-3.1602-2.1445-5.0586-2.1445s-3.7422 0.78125-5.0586 2.1445l-42.703 44.121c-0.41797 0.43359-0.53906 1.0742-0.30469 1.6289s0.77734 0.91406 1.3828 0.91406h10.273v32.617h-2.4766c-0.82812 0-1.5 0.67188-1.5 1.5v8.3359c0 0.82813 0.67188 1.5 1.5 1.5h77.773c0.82812 0 1.5-0.67187 1.5-1.5v-8.3359c0-0.82812-0.67188-1.5-1.5-1.5h-2.4766l0.003906-32.617h10.273c0.60156 0 1.1484-0.35938 1.3828-0.91406 0.23047-0.55469 0.10938-1.1953-0.30859-1.6289zm-31.543-42.012h16.273v2.7461h-16.273zm3.1953 5.7461h9.2109v16.492l-9.2109-9.5195zm17.973 79.758h-74.773v-5.3359h74.773zm-48.316-36.008h21.855v27.676h-21.855zm0.09375-3c0.67188-5.3867 5.2695-9.5742 10.836-9.5742s10.164 4.1836 10.836 9.5703zm44.25 30.676h-19.484v-29.32c0-7.6797-6.25-13.93-13.93-13.93s-13.93 6.25-13.93 13.93v29.32h-19.484v-32.617h2.1484c0.40625 0 0.79688-0.16406 1.0781-0.45703l30.188-31.191 30.188 31.191c0.28125 0.29297 0.67188 0.45703 1.0781 0.45703h2.1484zm-1.5117-35.617-30.824-31.848c-0.56641-0.58594-1.5898-0.58594-2.1562 0l-30.824 31.848h-11.242l40.242-41.578c0.75781-0.78125 1.8164-1.2305 2.9023-1.2305s2.1445 0.44922 2.9023 1.2305l40.242 41.578z"/>
<text x="0.0" y="117.5" font-size="5.0" font-weight="bold" font-family="Arbeit Regular, Helvetica, Arial-Unicode, Arial, Sans-serif" fill="#000000"></text><text x="0.0" y="122.5" font-size="5.0" font-weight="bold" font-family="Arbeit Regular, Helvetica, Arial-Unicode, Arial, Sans-serif" fill="#000000"></text></svg>