<svg xmlns="http://www.w3.org/2000/svg" version="1.1" viewBox="-5.0 -10.0 110.0 135.0">
 <path d="m24.898 27.898c0.19922 0.39844 0.60156 0.60156 1 0.60156h48.199c0.39844 0 0.80078-0.19922 1-0.60156 0.19922-0.39844 0.19922-0.80078 0-1.1016l-6.8984-11.301c-0.19922-0.30078-0.60156-0.5-1-0.5l-34.5 0.003906c-0.39844 0-0.80078 0.19922-1 0.5l-6.8008 11.301c-0.19922 0.39844-0.19922 0.80078 0 1.0977zm8.5-10.699h33.301l5.5 9.1016h-44.301z"/>
 <path d="m83.199 31.801-12-19.801c-0.80078-1.3008-2-2-3.3984-2h-35.602c-1.3984 0-2.6016 0.80078-3.3984 2l-12 19.801c-0.10156 0.19922-0.19922 0.39844-0.19922 0.60156v47.5c0 3.5 2.3984 6.3008 5.3984 6.3008h1.6016v2.8008c0 0.60156 0.5 1.1016 1.1016 1.1016h8c0.60156 0 1.1016-0.5 1.1016-1.1016v-2.8008l32.195-0.003906v2.8008c0 0.60156 0.5 1.1016 1.1016 1.1016h8c0.60156 0 1.1016-0.5 1.1016-1.1016v-2.8008h1.6016c3 0 5.3984-2.8008 5.3984-6.3008l-0.003906-47.598c0.10156-0.19922 0.10156-0.30078 0-0.5zm-64.301 2.1992c20.5 8.1016 41.5 8.1016 62.199 0v39.699h-62.199zm11.801-20.801c0.39844-0.60156 0.89844-1 1.5-1h35.699c0.60156 0 1.1016 0.39844 1.5 1l11.199 18.602c-20.398 8.1016-40.898 8.1016-61.102 0zm1 74.602h-5.6992v-1.6992h5.8008v1.6992zm42.301 0h-5.8008v-1.6992h5.8008zm3.8984-4h-55.797c-1.8008 0-3.1992-1.8008-3.1992-4l-0.003906-3.8008h62.199v3.8008c0.003906 2.1992-1.3984 4-3.1992 4z"/>
 <path d="m50 30.398c-1.6016 0-2.8984 1.3008-2.8984 2.8984 0 1.6016 1.3008 2.8984 2.8984 2.8984 1.6016 0 2.8984-1.3008 2.8984-2.8984s-1.2969-2.8984-2.8984-2.8984zm-0.69922 3c0-0.39844 0.30078-0.69922 0.69922-0.69922s0.69922 0.30078 0.69922 0.69922c0 0.70312-1.3984 0.70312-1.3984 0z"/>
 <path d="m63.199 32.199h-7.3008c-0.60156 0-1.1016 0.5-1.1016 1.1016 0 0.60156 0.5 1.1016 1.1016 1.1016h7.3008c0.60156 0 1.1016-0.5 1.1016-1.1016 0-0.60156-0.5-1.1016-1.1016-1.1016z"/>
 <path d="m44.102 32.199h-7.3008c-0.60156 0-1.1016 0.5-1.1016 1.1016 0 0.60156 0.5 1.1016 1.1016 1.1016h7.3008c0.60156 0 1.1016-0.5 1.1016-1.1016-0.003906-0.60156-0.50391-1.1016-1.1016-1.1016z"/>
<text x="0.0" y="117.5" font-size="5.0" font-weight="bold" font-family="Arbeit Regular, Helvetica, Arial-Unicode, Arial, Sans-serif" fill="#000000"></text><text x="0.0" y="122.5" font-size="5.0" font-weight="bold" font-family="Arbeit Regular, Helvetica, Arial-Unicode, Arial, Sans-serif" fill="#000000"></text></svg>