<svg xmlns="http://www.w3.org/2000/svg" version="1.1" viewBox="-5.0 -10.0 110.0 135.0">
 <path d="m50.027 5.2891c-17.258 0-34.555 6.8242-47.754 20.402h-0.007813c-2.9141 3.0273-3.0273 7.9141-0.27734 11.098 0.003907 0.003907 0.007813-0.003906 0.011719 0 0.003906 0.003907-0.003906 0.007813 0 0.011719 2.7656 3.207 7.6484 3.3789 10.598 0.34375 20.621-21.215 54.223-21.215 74.844 0h0.011719c2.9453 3 7.7969 2.8398 10.555-0.34375 2.7578-3.1836 2.6406-8.0781-0.27734-11.109-13.195-13.578-30.445-20.402-47.703-20.402zm0 3.125c16.434 0 32.84 6.4688 45.453 19.445 1.75 1.8164 1.8281 4.9648 0.16016 6.8867s-4.1992 2.0039-5.9648 0.20703v0.011719c-21.809-22.438-57.512-22.438-79.32 0-1.7695 1.8203-4.3281 1.7383-6-0.20703h0.003906v-0.003906-0.003906-0.003906c-1.668-1.9219-1.5859-5.0664 0.16016-6.8828 12.609-12.973 29.07-19.449 45.504-19.449zm0 20.195c-11.039 0-22.121 4.3438-30.578 13.047-2.9531 3.0352-3.0742 7.9609-0.27734 11.152 2.7734 3.2031 7.6602 3.3477 10.602 0.3125l0.011718-0.011719c11.133-11.441 29.355-11.441 40.484 0.011719 2.9336 3.0117 7.7891 2.8594 10.566-0.3125 2.7891-3.1914 2.6719-8.1172-0.27734-11.152-8.4531-8.6992-19.488-13.047-30.527-13.047zm0 3.125c10.223 0 20.422 4 28.293 12.102 1.7695 1.8203 1.8477 4.9961 0.16016 6.9219-1.6758 1.9141-4.2188 1.9883-5.9766 0.18359-12.324-12.68-32.645-12.68-44.969 0-1.7617 1.8281-4.332 1.7617-6.0117-0.17578v-0.003906-0.003907-0.003906c-1.6875-1.9258-1.6094-5.1016 0.16016-6.9219 7.8711-8.0977 18.121-12.102 28.34-12.102zm0 19.758c-5.7656 0-11.566 2.2695-16 6.8281-2.9531 3.0352-3.0703 7.9766-0.27344 11.168 2.7734 3.168 7.6172 3.3086 10.551 0.29688 3.0664-3.1523 8.3164-3.1523 11.383 0 2.9336 3.0117 7.7891 2.8711 10.566-0.29688 2.7969-3.1914 2.6797-8.1289-0.27344-11.168-4.4297-4.5547-10.188-6.8281-15.949-6.8281zm0 3.125c4.9492 0 9.8633 1.918 13.715 5.8789 1.7695 1.8203 1.8477 4.9961 0.16016 6.9219-1.6758 1.9141-4.207 1.9922-5.9648 0.1875-4.3008-4.4219-11.57-4.4219-15.867 0-1.7578 1.8047-4.2891 1.7266-5.9648-0.1875-1.6875-1.9258-1.6094-5.1016 0.16016-6.9219 3.8477-3.957 8.8125-5.8789 13.762-5.8789zm-0.023438 19.93c-5.5469 0-10.078 4.5312-10.078 10.078s4.5312 10.082 10.078 10.082 10.07-4.5352 10.07-10.082-4.5234-10.078-10.07-10.078zm0 3.125c3.8594 0 6.9531 3.0977 6.9531 6.9531 0 3.8594-3.0977 6.9531-6.9531 6.9531-3.8594 0-6.9531-3.0977-6.9531-6.9531 0-3.8594 3.0977-6.9531 6.9531-6.9531z"/>
<text x="0.0" y="117.5" font-size="5.0" font-weight="bold" font-family="Arbeit Regular, Helvetica, Arial-Unicode, Arial, Sans-serif" fill="#000000"></text><text x="0.0" y="122.5" font-size="5.0" font-weight="bold" font-family="Arbeit Regular, Helvetica, Arial-Unicode, Arial, Sans-serif" fill="#000000"></text></svg>